0
SECTION
2
HEADER
9
$INSUNITS
70
4
9
$ACADVER
1
AC1014
9
$HANDSEED
5
FFFF
0
ENDSEC
0
SECTION
2
TABLES
0
TABLE
2
VPORT
5
8
100
AcDbSymbolTable
0
ENDTAB
0
TABLE
2
LTYPE
5
5
100
AcDbSymbolTable
0
LTYPE
5
14
100
AcDbSymbolTableRecord
100
AcDbLinetypeTableRecord
2
BYBLOCK
70
0
0
LTYPE
5
15
100
AcDbSymbolTableRecord
100
AcDbLinetypeTableRecord
2
BYLAYER
70
0
0
LTYPE
5
16
100
AcDbSymbolTableRecord
100
AcDbLinetypeTableRecord
2
DASHED
70
0
3
Dashed __ __ __ __ __ __ __ __ __ __ __ __ __ _
72
65
73
2
40
0.75
49
0.5
74
0
49
-0.25
74
0
0
ENDTAB
0
TABLE
2
LAYER
5
2
100
AcDbSymbolTable
70
2
0
LAYER
5
50
100
AcDbSymbolTableRecord
100
AcDbLayerTableRecord
2
0
70
0
62
7
6
CONTINUOUS
0
ENDTAB
0
TABLE
2
STYLE
5
3
100
AcDbSymbolTable
70
1
0
STYLE
5
11
100
AcDbSymbolTableRecord
100
AcDbTextStyleTableRecord
2
STANDARD
70
0
0
ENDTAB
0
TABLE
2
VIEW
5
6
100
AcDbSymbolTable
70
0
0
ENDTAB
0
TABLE
2
UCS
5
7
100
AcDbSymbolTable
70
0
0
ENDTAB
0
TABLE
2
APPID
5
9
100
AcDbSymbolTable
70
2
0
APPID
5
12
100
AcDbSymbolTableRecord
100
AcDbRegAppTableRecord
2
ACAD
70
0
0
ENDTAB
0
TABLE
2
DIMSTYLE
5
A
100
AcDbSymbolTable
70
1
0
ENDTAB
0
TABLE
2
BLOCK_RECORD
5
1
100
AcDbSymbolTable
70
1
0
BLOCK_RECORD
5
1F
100
AcDbSymbolTableRecord
100
AcDbBlockTableRecord
2
*MODEL_SPACE
0
BLOCK_RECORD
5
1B
100
AcDbSymbolTableRecord
100
AcDbBlockTableRecord
2
*PAPER_SPACE
0
ENDTAB
0
ENDSEC
0
SECTION
2
BLOCKS
0
BLOCK
5
20
100
AcDbEntity
100
AcDbBlockBegin
2
*MODEL_SPACE
0
ENDBLK
5
21
100
AcDbEntity
100
AcDbBlockEnd
0
BLOCK
5
1C
100
AcDbEntity
100
AcDbBlockBegin
2
*PAPER_SPACE
0
ENDBLK
5
1D
100
AcDbEntity
100
AcDbBlockEnd
0
ENDSEC
0
SECTION
2
ENTITIES
0
POINT
5
100
100
AcDbEntity
8
0
100
AcDbPoint
10
0
20
0
30
0
0
POINT
5
101
100
AcDbEntity
8
0
100
AcDbPoint
10
599.39575063743587
20
63.145750637435754
30
0
0
POINT
5
102
100
AcDbEntity
8
0
100
AcDbPoint
10
605.25
20
43.335498299058969
30
0
0
POINT
5
103
100
AcDbEntity
8
0
100
AcDbPoint
10
578.01712561098964
20
33.274999999999999
30
0
0
POINT
5
104
100
AcDbEntity
8
0
100
AcDbPoint
10
557.06766235091391
20
60.817662350913722
30
0
0
POINT
5
105
100
AcDbEntity
8
0
100
AcDbPoint
10
557.06766235091413
20
134.81766235091342
30
0
0
POINT
5
106
100
AcDbEntity
8
0
100
AcDbPoint
10
557.06766235091334
20
97.817662350913736
30
0
0
POINT
5
107
100
AcDbEntity
8
0
100
AcDbPoint
10
77.350505063388383
20
172.10050506338837
30
0
0
POINT
5
108
100
AcDbEntity
8
0
100
AcDbPoint
10
77.067662350913764
20
134.81766235091379
30
0
0
POINT
5
109
100
AcDbEntity
8
0
100
AcDbPoint
10
77.067662350913722
20
171.81766235091376
30
0
0
POINT
5
110
100
AcDbEntity
8
0
100
AcDbPoint
10
75.250000000000014
20
57.499999999999993
30
0
0
POINT
5
111
100
AcDbEntity
8
0
100
AcDbPoint
10
325.36944455875158
20
178.5
30
0
0
LWPOLYLINE
5
112
100
AcDbEntity
8
0
100
AcDbPolyline
90
4
70
1
43
0.0
10
0
20
0
10
650
20
2.6038572848115429e-30
10
650
20
215
10
0
20
215
0
CIRCLE
5
113
100
AcDbEntity
8
0
100
AcDbCircle
10
47.250000000000007
20
182.00000000000006
30
0
40
14.000000000000002
210
0
220
0
230
1
0
CIRCLE
5
114
100
AcDbEntity
8
0
100
AcDbCircle
10
87.250000000000014
20
182.00000000000006
30
0
40
14.000000000000002
210
0
220
0
230
1
0
CIRCLE
5
115
100
AcDbEntity
8
0
100
AcDbCircle
10
36
20
154.5
30
0
40
6.0000000000000009
210
0
220
0
230
1
0
CIRCLE
5
116
100
AcDbEntity
8
0
100
AcDbCircle
10
56
20
154.50000000000006
30
0
40
6.0000000000000009
210
0
220
0
230
1
0
CIRCLE
5
117
100
AcDbEntity
8
0
100
AcDbCircle
10
87.250000000000014
20
145.00000000000006
30
0
40
14.000000000000002
210
0
220
0
230
1
0
CIRCLE
5
118
100
AcDbEntity
8
0
100
AcDbCircle
10
47.250000000000007
20
113.30000000000005
30
0
40
13.200000000000001
210
0
220
0
230
1
0
CIRCLE
5
119
100
AcDbEntity
8
0
100
AcDbCircle
10
75.250000000000014
20
53.749999999999986
30
0
40
13.200000000000001
210
0
220
0
230
1
0
CIRCLE
5
120
100
AcDbEntity
8
0
100
AcDbCircle
10
25.250000000000004
20
53.75
30
0
40
6.25
210
0
220
0
230
1
0
CIRCLE
5
121
100
AcDbEntity
8
0
100
AcDbCircle
10
121.16453940957595
20
163.19999999999999
30
0
40
3.4000000000000004
210
0
220
0
230
1
0
CIRCLE
5
122
100
AcDbEntity
8
0
100
AcDbCircle
10
25.050878045507694
20
44.252087047817341
30
0
40
1.25
210
0
220
0
230
1
0
CIRCLE
5
123
100
AcDbEntity
8
0
100
AcDbCircle
10
121.16453940957597
20
12.4
30
0
40
3.4000000000000004
210
0
220
0
230
1
0
CIRCLE
5
124
100
AcDbEntity
8
0
100
AcDbCircle
10
190.36388911750308
20
84.625000000000043
30
0
40
72.625
210
0
220
0
230
1
0
CIRCLE
5
125
100
AcDbEntity
8
0
100
AcDbCircle
10
255.40778179886874
20
155.40146254126429
30
0
40
9
210
0
220
0
230
1
0
CIRCLE
5
126
100
AcDbEntity
8
0
100
AcDbCircle
10
325.36944455875152
20
119.25
30
0
40
52.75
210
0
220
0
230
1
0
CIRCLE
5
127
100
AcDbEntity
8
0
100
AcDbCircle
10
392.72468540768796
20
157.07636686468535
30
0
40
6.0000000000000009
210
0
220
0
230
1
0
CIRCLE
5
128
100
AcDbEntity
8
0
100
AcDbCircle
10
460.37499999999994
20
84.625
30
0
40
72.625
210
0
220
0
230
1
0
CIRCLE
5
129
100
AcDbEntity
8
0
100
AcDbCircle
10
278.81184379959439
20
62.699559581282429
30
0
40
9
210
0
220
0
230
1
0
CIRCLE
5
130
100
AcDbEntity
8
0
100
AcDbCircle
10
371.92704531790861
20
62.699559581282429
30
0
40
9
210
0
220
0
230
1
0
CIRCLE
5
131
100
AcDbEntity
8
0
100
AcDbCircle
10
529.57434970792724
20
163.19999999999999
30
0
40
3.4000000000000004
210
0
220
0
230
1
0
CIRCLE
5
132
100
AcDbEntity
8
0
100
AcDbCircle
10
529.57434970792724
20
12.4
30
0
40
3.4000000000000004
210
0
220
0
230
1
0
CIRCLE
5
133
100
AcDbEntity
8
0
100
AcDbCircle
10
567.25000000000011
20
182.00000000000003
30
0
40
14.000000000000002
210
0
220
0
230
1
0
CIRCLE
5
134
100
AcDbEntity
8
0
100
AcDbCircle
10
567.24999999999989
20
145.00000000000003
30
0
40
14.000000000000002
210
0
220
0
230
1
0
CIRCLE
5
135
100
AcDbEntity
8
0
100
AcDbCircle
10
567.24999999999955
20
108.00000000000003
30
0
40
14.000000000000002
210
0
220
0
230
1
0
CIRCLE
5
136
100
AcDbEntity
8
0
100
AcDbCircle
10
567.25000000000011
20
71.000000000000028
30
0
40
14.000000000000002
210
0
220
0
230
1
0
CIRCLE
5
137
100
AcDbEntity
8
0
100
AcDbCircle
10
563.125
20
33.274999999999999
30
0
40
16.875
210
0
220
0
230
1
0
CIRCLE
5
138
100
AcDbEntity
8
0
100
AcDbCircle
10
607.25
20
71
30
0
40
14.000000000000002
210
0
220
0
230
1
0
CIRCLE
5
139
100
AcDbEntity
8
0
100
AcDbCircle
10
605.25
20
30
30
0
40
16
210
0
220
0
230
1
0
CIRCLE
5
140
100
AcDbEntity
8
0
100
AcDbCircle
10
633.75
20
68.25
30
0
40
6.25
210
0
220
0
230
1
0
CIRCLE
5
141
100
AcDbEntity
8
0
100
AcDbCircle
10
615.84999999999991
20
107.15000000000001
30
0
40
7.1500000000000004
210
0
220
0
230
1
0
CIRCLE
5
142
100
AcDbEntity
8
0
100
AcDbCircle
10
602.5
20
166.50000000000003
30
0
40
14.500000000000002
210
0
220
0
230
1
0
LINE
5
143
100
AcDbEntity
8
0
100
AcDbLine
10
567.25000000000011
20
71.000000000000028
30
0
11
567.25000000000011
21
182.00000000000003
31
0
6
DASHED
0
LINE
5
144
100
AcDbEntity
8
0
100
AcDbLine
10
567.25000000000011
20
71.000000000000028
30
0
11
607.25
21
71
31
0
6
DASHED
0
LINE
5
145
100
AcDbEntity
8
0
100
AcDbLine
10
529.57434970792724
20
12.4
30
0
11
529.57434970792724
21
163.19999999999999
31
0
6
DASHED
0
LINE
5
146
100
AcDbEntity
8
0
100
AcDbLine
10
594.97633325501988
20
67.565168019851612
30
0
11
603.81516801985174
21
58.726333255019782
31
0
6
DASHED
0
LINE
5
147
100
AcDbEntity
8
0
100
AcDbLine
10
607.25
20
71
30
0
11
597.3538576612923
21
61.103857661292238
31
0
6
DASHED
0
LINE
5
148
100
AcDbEntity
8
0
100
AcDbLine
10
607.25
20
71
30
0
11
621.24683890246581
21
71
31
0
6
DASHED
0
LINE
5
149
100
AcDbEntity
8
0
100
AcDbLine
10
594.97633325501988
20
67.565168019851612
30
0
11
592.64824496849792
21
65.237079733329466
31
0
6
DASHED
0
LINE
5
150
100
AcDbEntity
8
0
100
AcDbLine
10
592.64824496849792
20
65.237079733329466
30
0
11
601.48707973332967
21
56.398244968497707
31
0
0
LINE
5
151
100
AcDbEntity
8
0
100
AcDbLine
10
601.48707973332967
20
56.398244968497707
30
0
11
602.8111585241528
21
57.722323759320766
31
0
0
LINE
5
152
100
AcDbEntity
8
0
100
AcDbLine
10
607.25
20
71
30
0
11
617.14949493661163
21
80.899494936611731
31
0
6
DASHED
0
LINE
5
153
100
AcDbEntity
8
0
100
AcDbLine
10
593.97232375932083
20
66.561158524152518
30
0
11
592.64824496849781
21
65.237079733329523
31
0
0
LINE
5
154
100
AcDbEntity
8
0
100
AcDbLine
10
603.81516801985174
20
58.726333255019782
30
0
11
601.48707973332967
21
56.398244968497707
31
0
6
DASHED
0
LINE
5
155
100
AcDbEntity
8
0
100
AcDbLine
10
605.19378349556735
20
75.626386663483657
30
0
11
595.18017890374631
21
65.612782071662707
31
0
6
DASHED
0
LINE
5
156
100
AcDbEntity
8
0
100
AcDbLine
10
600.01490582184351
20
75.127045487998785
30
0
11
608.85374058667526
21
66.288210723166912
31
0
6
DASHED
0
LINE
5
157
100
AcDbEntity
8
0
100
AcDbLine
10
608.85374058667526
20
66.288210723166912
30
0
11
601.6877664538838
21
59.122236590375621
31
0
6
DASHED
0
LINE
5
158
100
AcDbEntity
8
0
100
AcDbLine
10
592.84893168905205
20
67.96107135520738
30
0
11
601.6877664538838
21
59.122236590375621
31
0
0
LINE
5
159
100
AcDbEntity
8
0
100
AcDbLine
10
600.01490582184351
20
75.127045487998785
30
0
11
592.84893168905205
21
67.96107135520738
31
0
6
DASHED
0
LINE
5
160
100
AcDbEntity
8
0
100
AcDbLine
10
567.25000000000011
20
71.000000000000028
30
0
11
557.35050506338848
21
61.10050506338834
31
0
6
DASHED
0
LINE
5
161
100
AcDbEntity
8
0
100
AcDbLine
10
560.54184139864401
20
73.130676163475627
30
0
11
569.38067616347598
21
64.291841398643697
31
0
6
DASHED
0
LINE
5
162
100
AcDbEntity
8
0
100
AcDbLine
10
569.38067616347598
20
64.291841398643697
30
0
11
561.48707973332978
21
56.398244968497622
31
0
6
DASHED
0
LINE
5
163
100
AcDbEntity
8
0
100
AcDbLine
10
552.64824496849781
20
65.237079733329438
30
0
11
561.48707973332978
21
56.398244968497622
31
0
0
LINE
5
164
100
AcDbEntity
8
0
100
AcDbLine
10
560.54184139864401
20
73.130676163475627
30
0
11
552.64824496849781
21
65.237079733329438
31
0
6
DASHED
0
LINE
5
165
100
AcDbEntity
8
0
100
AcDbLine
10
567.24999999999955
20
108.00000000000003
30
0
11
557.06766235091357
21
97.817662350913537
31
0
6
DASHED
0
LINE
5
166
100
AcDbEntity
8
0
100
AcDbLine
10
556.18322367337373
20
105.77205843818469
30
0
11
565.02205843821389
21
96.933223673361141
31
0
6
DASHED
0
LINE
5
167
100
AcDbEntity
8
0
100
AcDbLine
10
565.02205843821389
20
96.933223673361141
30
0
11
561.48707973333728
21
93.398244968490758
31
0
6
DASHED
0
LINE
5
168
100
AcDbEntity
8
0
100
AcDbLine
10
552.6482449684903
20
102.23707973333728
30
0
11
561.48707973333728
21
93.398244968490758
31
0
0
LINE
5
169
100
AcDbEntity
8
0
100
AcDbLine
10
556.18322367337373
20
105.77205843818469
30
0
11
552.6482449684903
21
102.23707973333728
31
0
6
DASHED
0
LINE
5
170
100
AcDbEntity
8
0
100
AcDbLine
10
567.24999999999989
20
145.00000000000003
30
0
11
557.35385766129275
21
135.10385766129201
31
0
6
DASHED
0
LINE
5
171
100
AcDbEntity
8
0
100
AcDbLine
10
555.94090100695769
20
142.52973577174419
30
0
11
564.77973577178966
21
133.69090100691236
31
0
6
DASHED
0
LINE
5
172
100
AcDbEntity
8
0
100
AcDbLine
10
564.77973577178966
20
133.69090100691236
30
0
11
561.48707973334194
21
130.39824496848587
31
0
6
DASHED
0
LINE
5
173
100
AcDbEntity
8
0
100
AcDbLine
10
552.64824496849747
20
139.23707973333021
30
0
11
561.48707973334194
21
130.39824496848587
31
0
0
LINE
5
174
100
AcDbEntity
8
0
100
AcDbLine
10
555.94090100695769
20
142.52973577174419
30
0
11
552.64824496849747
21
139.23707973333021
31
0
6
DASHED
0
LINE
5
175
100
AcDbEntity
8
0
100
AcDbLine
10
567.25000000000011
20
182.00000000000003
30
0
11
557.3505050633886
21
172.10050506338831
31
0
6
DASHED
0
LINE
5
176
100
AcDbEntity
8
0
100
AcDbLine
10
552.82384711635052
20
176.41268188096149
30
0
11
561.66268188117715
21
167.57384711612366
31
0
6
DASHED
0
LINE
5
177
100
AcDbEntity
8
0
100
AcDbLine
10
561.66268188117715
20
167.57384711612366
30
0
11
561.48707973321257
21
167.39824496882039
31
0
6
DASHED
0
LINE
5
178
100
AcDbEntity
8
0
100
AcDbLine
10
552.64824496861911
20
176.23707973301109
30
0
11
561.48707973321257
21
167.39824496882039
31
0
0
LINE
5
179
100
AcDbEntity
8
0
100
AcDbLine
10
552.82384711635052
20
176.41268188096149
30
0
11
552.64824496861911
21
176.23707973301109
31
0
6
DASHED
0
LINE
5
180
100
AcDbEntity
8
0
100
AcDbLine
10
552.64824496861911
20
176.23707973301109
30
0
11
552.7360460424851
21
176.32488080698613
31
0
0
LINE
5
181
100
AcDbEntity
8
0
100
AcDbLine
10
552.7360460424851
20
176.32488080698613
30
0
11
553.97232375901717
21
177.5611585250607
31
0
0
LINE
5
182
100
AcDbEntity
8
0
100
AcDbLine
10
561.48707973321257
20
167.39824496882039
30
0
11
562.81115852755477
21
168.72232375818353
31
0
0
LINE
5
183
100
AcDbEntity
8
0
100
AcDbLine
10
552.64824496849747
20
139.23707973333021
30
0
11
553.97232375933015
21
140.56115852413581
31
0
0
LINE
5
184
100
AcDbEntity
8
0
100
AcDbLine
10
561.48707973334194
20
130.39824496848587
30
0
11
562.81115852417724
21
131.72232375931264
31
0
0
LINE
5
185
100
AcDbEntity
8
0
100
AcDbLine
10
552.64824496849781
20
65.237079733329438
30
0
11
553.97232375932003
21
66.561158524152532
31
0
0
LINE
5
186
100
AcDbEntity
8
0
100
AcDbLine
10
561.48707973332978
20
56.398244968497622
30
0
11
562.81115852415257
21
57.722323759320616
31
0
0
LINE
5
187
100
AcDbEntity
8
0
100
AcDbLine
10
561.48707973333728
20
93.398244968490758
30
0
11
562.81115852416656
21
94.722323759316239
31
0
0
LINE
5
188
100
AcDbEntity
8
0
100
AcDbLine
10
552.6482449684903
20
102.23707973333728
30
0
11
553.97232375932174
21
103.5611585241552
31
0
0
LINE
5
189
100
AcDbEntity
8
0
100
AcDbLine
10
371.92704531790861
20
62.699559581282429
30
0
11
278.81184379959439
21
62.699559581282429
31
0
6
DASHED
0
LINE
5
190
100
AcDbEntity
8
0
100
AcDbLine
10
460.37499999999994
20
84.625
30
0
11
190.36388911750308
21
84.625000000000043
31
0
6
DASHED
0
LINE
5
191
100
AcDbEntity
8
0
100
AcDbLine
10
121.16453940957597
20
12.4
30
0
11
529.57434970792724
21
12.4
31
0
6
DASHED
0
LINE
5
192
100
AcDbEntity
8
0
100
AcDbLine
10
121.16453940957597
20
12.4
30
0
11
121.16453940957595
21
163.19999999999999
31
0
6
DASHED
0
LINE
5
193
100
AcDbEntity
8
0
100
AcDbLine
10
121.16453940957595
20
163.19999999999999
30
0
11
529.57434970792724
21
163.19999999999999
31
0
6
DASHED
0
LINE
5
194
100
AcDbEntity
8
0
100
AcDbLine
10
605.25
20
14
30
0
11
605.25
21
30
31
0
6
DASHED
0
LINE
5
195
100
AcDbEntity
8
0
100
AcDbLine
10
605.25
20
30
30
0
11
605.25
21
46
31
0
6
DASHED
0
LINE
5
196
100
AcDbEntity
8
0
100
AcDbLine
10
546.25
20
33.274999999999999
30
0
11
563.125
21
33.274999999999999
31
0
6
DASHED
0
LINE
5
197
100
AcDbEntity
8
0
100
AcDbLine
10
563.125
20
33.274999999999999
30
0
11
580
21
33.274999999999999
31
0
6
DASHED
0
LWPOLYLINE
5
198
100
AcDbEntity
8
0
100
AcDbPolyline
90
4
70
1
43
0.0
10
602
20
48
10
608.5
20
48
10
608.5
20
43.335498299058969
10
602
20
43.335498299058969
0
LWPOLYLINE
5
199
100
AcDbEntity
8
0
100
AcDbPolyline
90
4
70
1
43
0.0
10
578.01712561098964
20
36.024999999999999
10
580.75
20
36.024999999999999
10
580.75
20
30.524999999999991
10
578.01712561098964
20
30.524999999999999
0
CIRCLE
5
200
100
AcDbEntity
8
0
100
AcDbCircle
10
633.75000000000023
20
58.75
30
0
40
1.2499999999999987
210
0
220
0
230
1
0
LINE
5
201
100
AcDbEntity
8
0
100
AcDbLine
10
633.75
20
68.25
30
0
11
633.75000000000023
21
58.75
31
0
6
DASHED
0
LINE
5
202
100
AcDbEntity
8
0
100
AcDbLine
10
87.250000000000014
20
145.00000000000006
30
0
11
77.350505063388368
21
135.1005050633884
31
0
6
DASHED
0
LINE
5
203
100
AcDbEntity
8
0
100
AcDbLine
10
87.250000000000014
20
182.00000000000006
30
0
11
77.350505063388383
21
172.10050506338837
31
0
6
DASHED
0
LINE
5
204
100
AcDbEntity
8
0
100
AcDbLine
10
47.250000000000007
20
182.00000000000006
30
0
11
37.350505063388354
21
172.10050506338837
31
0
6
DASHED
0
LINE
5
205
100
AcDbEntity
8
0
100
AcDbLine
10
87.250000000000014
20
145.00000000000006
30
0
11
87.250000000000014
21
182.00000000000006
31
0
6
DASHED
0
LINE
5
206
100
AcDbEntity
8
0
100
AcDbLine
10
87.250000000000014
20
182.00000000000006
30
0
11
47.250000000000007
21
182.00000000000006
31
0
6
DASHED
0
LINE
5
207
100
AcDbEntity
8
0
100
AcDbLine
10
36
20
154.5
30
0
11
56
21
154.50000000000006
31
0
6
DASHED
0
LINE
5
208
100
AcDbEntity
8
0
100
AcDbLine
10
567.25000000000011
20
182.00000000000003
30
0
11
87.250000000000014
21
182.00000000000006
31
0
6
DASHED
0
LINE
5
209
100
AcDbEntity
8
0
100
AcDbLine
10
557.35050506338848
20
61.10050506338834
30
0
11
557.06766235091391
21
60.817662350913722
31
0
6
DASHED
0
LINE
5
210
100
AcDbEntity
8
0
100
AcDbLine
10
557.35385766129275
20
135.10385766129201
30
0
11
550.2188365782531
21
127.96883657825174
31
0
6
DASHED
0
LINE
5
211
100
AcDbEntity
8
0
100
AcDbLine
10
32.384918014117012
20
176.50040668771052
30
0
11
41.223752778948835
21
167.66157192287864
31
0
0
LINE
5
212
100
AcDbEntity
8
0
100
AcDbLine
10
32.384918014117012
20
176.50040668771052
30
0
11
33.845334689232118
21
177.96082336282558
31
0
0
LINE
5
213
100
AcDbEntity
8
0
100
AcDbLine
10
41.223752778948835
20
167.66157192287864
30
0
11
42.421274773053959
21
168.85909391698374
31
0
0
LINE
5
214
100
AcDbEntity
8
0
100
AcDbLine
10
87.250000000000014
20
182.00000000000006
30
0
11
76.958495648707483
21
171.7084956487075
31
0
6
DASHED
0
LINE
5
215
100
AcDbEntity
8
0
100
AcDbLine
10
72.648244968497778
20
176.23707973332967
30
0
11
74.082380264339804
21
177.2446040651644
31
0
0
LINE
5
216
100
AcDbEntity
8
0
100
AcDbLine
10
81.487079733329637
20
167.39824496849786
30
0
11
82.811158524152617
21
168.72232375932086
31
0
0
LINE
5
217
100
AcDbEntity
8
0
100
AcDbLine
10
87.250000000000014
20
145.00000000000006
30
0
11
77.067662350913764
21
134.81766235091379
31
0
6
DASHED
0
LINE
5
218
100
AcDbEntity
8
0
100
AcDbLine
10
72.648244968497821
20
139.23707973332969
30
0
11
73.972323759320815
21
140.56115852415269
31
0
0
LINE
5
219
100
AcDbEntity
8
0
100
AcDbLine
10
72.648244968497821
20
139.23707973332969
30
0
11
81.487079733329679
21
130.39824496849783
31
0
0
LINE
5
220
100
AcDbEntity
8
0
100
AcDbLine
10
81.487079733329679
20
130.39824496849783
30
0
11
82.811158524152688
21
131.72232375932086
31
0
0
LINE
5
221
100
AcDbEntity
8
0
100
AcDbLine
10
72.648244968497778
20
176.23707973332967
30
0
11
81.487079733329637
21
167.39824496849786
31
0
0
LINE
5
222
100
AcDbEntity
8
0
100
AcDbLine
10
76.958495648707483
20
171.7084956487075
30
0
11
77.067662350913722
21
171.81766235091376
31
0
6
DASHED
0
LWPOLYLINE
5
223
100
AcDbEntity
8
0
100
AcDbPolyline
90
4
70
1
43
0.0
10
30.499999999999986
20
117.05000000000014
10
63.999999999999986
20
117.05000000000014
10
63.999999999999986
20
109.55000000000014
10
30.499999999999986
20
109.55000000000014
0
LINE
5
224
100
AcDbEntity
8
0
100
AcDbLine
10
47.249999999999986
20
117.05000000000014
30
0
11
47.250000000000007
21
113.30000000000005
31
0
6
DASHED
0
LINE
5
225
100
AcDbEntity
8
0
100
AcDbLine
10
47.250000000000007
20
113.30000000000005
30
0
11
30.499999999999986
21
113.30000000000014
31
0
6
DASHED
0
LINE
5
226
100
AcDbEntity
8
0
100
AcDbLine
10
92.00000000000486
20
50.000000000005173
30
0
11
58.500000000004853
21
50.000000000005173
31
0
0
LINE
5
227
100
AcDbEntity
8
0
100
AcDbLine
10
75.250000000000014
20
53.749999999999986
30
0
11
58.500000000000007
21
53.750000000000007
31
0
6
DASHED
0
LINE
5
228
100
AcDbEntity
8
0
100
AcDbLine
10
75.250000000000014
20
57.499999999999993
30
0
11
75.250000000000014
21
53.749999999999986
31
0
6
DASHED
0
LINE
5
229
100
AcDbEntity
8
0
100
AcDbLine
10
58.500000000004853
20
50.000000000005173
30
0
11
58.499999999995154
21
57.499999999994849
31
0
0
LINE
5
230
100
AcDbEntity
8
0
100
AcDbLine
10
58.499999999995154
20
57.499999999994849
30
0
11
92.00000000000486
21
57.500000000010246
31
0
0
LINE
5
231
100
AcDbEntity
8
0
100
AcDbLine
10
92.00000000000486
20
57.500000000010246
30
0
11
92.00000000000486
21
50.000000000005173
31
0
0
LINE
5
232
100
AcDbEntity
8
0
100
AcDbLine
10
47.250000000000007
20
182.00000000000006
30
0
11
47.250000000000007
21
113.30000000000005
31
0
6
DASHED
0
LINE
5
233
100
AcDbEntity
8
0
100
AcDbLine
10
75.250000000000014
20
53.749999999999986
30
0
11
25.250000000000004
21
53.75
31
0
6
DASHED
0
LWPOLYLINE
5
234
100
AcDbEntity
8
0
100
AcDbPolyline
90
4
70
1
43
0.0
10
115.36944455875157
20
199.00000000000003
10
535.36944455875164
20
199.00000000000003
10
535.36944455875164
20
178.5
10
115.36944455875157
20
178.5
0
LINE
5
235
100
AcDbEntity
8
0
100
AcDbLine
10
325.36944455875152
20
119.25
30
0
11
325.36944455875158
21
178.5
31
0
6
DASHED
0
LWPOLYLINE
5
236
100
AcDbEntity
8
0
100
AcDbPolyline
90
4
70
1
43
0.0
10
122.36944455875155
20
198
10
138.36944455875155
20
198
10
138.36944455875155
20
179.5
10
122.36944455875155
20
179.5
0
LINE
5
237
100
AcDbEntity
8
0
100
AcDbLine
10
115.36944455875157
20
188.75
30
0
11
122.36944455875155
21
188.75
31
0
0
LWPOLYLINE
5
238
100
AcDbEntity
8
0
100
AcDbPolyline
90
4
70
1
43
0.0
10
148.36944455875155
20
179.5
10
148.36944455875155
20
198
10
164.36944455875158
20
198
10
164.36944455875158
20
179.5
0
LWPOLYLINE
5
239
100
AcDbEntity
8
0
100
AcDbPolyline
90
4
70
1
43
0.0
10
174.36944455875158
20
179.5
10
174.36944455875158
20
198
10
190.36944455875158
20
198
10
190.36944455875158
20
179.5
0
LWPOLYLINE
5
240
100
AcDbEntity
8
0
100
AcDbPolyline
90
4
70
1
43
0.0
10
200.36944455875158
20
179.5
10
200.36944455875158
20
198
10
216.36944455875158
20
198
10
216.36944455875158
20
179.5
0
LWPOLYLINE
5
241
100
AcDbEntity
8
0
100
AcDbPolyline
90
4
70
1
43
0.0
10
226.36944455875158
20
179.5
10
226.36944455875158
20
198
10
242.36944455875152
20
198
10
242.36944455875152
20
179.5
0
LWPOLYLINE
5
242
100
AcDbEntity
8
0
100
AcDbPolyline
90
4
70
1
43
0.0
10
252.36944455875152
20
179.5
10
252.36944455875152
20
198
10
268.36944455875152
20
198
10
268.36944455875152
20
179.5
0
LWPOLYLINE
5
243
100
AcDbEntity
8
0
100
AcDbPolyline
90
4
70
1
43
0.0
10
278.36944455875152
20
179.5
10
278.36944455875152
20
198
10
294.36944455875158
20
198
10
294.36944455875158
20
179.5
0
LWPOLYLINE
5
244
100
AcDbEntity
8
0
100
AcDbPolyline
90
4
70
1
43
0.0
10
304.36944455875158
20
179.5
10
304.36944455875158
20
198
10
320.36944455875158
20
198
10
320.36944455875158
20
179.5
0
LWPOLYLINE
5
245
100
AcDbEntity
8
0
100
AcDbPolyline
90
4
70
1
43
0.0
10
330.36944455875158
20
179.5
10
330.36944455875158
20
198
10
346.36944455875158
20
198
10
346.36944455875158
20
179.5
0
LWPOLYLINE
5
246
100
AcDbEntity
8
0
100
AcDbPolyline
90
4
70
1
43
0.0
10
356.36944455875158
20
179.5
10
356.36944455875158
20
198
10
372.36944455875164
20
198
10
372.36944455875164
20
179.5
0
LWPOLYLINE
5
247
100
AcDbEntity
8
0
100
AcDbPolyline
90
4
70
1
43
0.0
10
382.36944455875152
20
179.5
10
382.36944455875152
20
198
10
398.36944455875152
20
198
10
398.36944455875152
20
179.5
0
LWPOLYLINE
5
248
100
AcDbEntity
8
0
100
AcDbPolyline
90
4
70
1
43
0.0
10
408.36944455875164
20
179.5
10
408.36944455875164
20
198
10
424.36944455875158
20
198
10
424.36944455875158
20
179.5
0
LWPOLYLINE
5
249
100
AcDbEntity
8
0
100
AcDbPolyline
90
4
70
1
43
0.0
10
434.36944455875158
20
179.5
10
434.36944455875158
20
198
10
450.36944455875158
20
198
10
450.36944455875158
20
179.5
0
LWPOLYLINE
5
250
100
AcDbEntity
8
0
100
AcDbPolyline
90
4
70
1
43
0.0
10
460.36944455875164
20
179.5
10
460.36944455875164
20
198
10
476.36944455875158
20
198
10
476.36944455875158
20
179.5
0
LWPOLYLINE
5
251
100
AcDbEntity
8
0
100
AcDbPolyline
90
4
70
1
43
0.0
10
486.36944455875158
20
179.5
10
486.36944455875158
20
198
10
502.36944455875152
20
198
10
502.36944455875152
20
179.5
0
LWPOLYLINE
5
252
100
AcDbEntity
8
0
100
AcDbPolyline
90
4
70
1
43
0.0
10
512.36944455875152
20
179.5
10
512.36944455875152
20
198
10
528.36944455875152
20
198
10
528.36944455875152
20
179.5
0
ENDSEC
0
SECTION
2
OBJECTS
0
DICTIONARY
5
C
100
AcDbDictionary
3
ACAD_GROUP
350
D
3
ACAD_MLINESTYLE
350
17
0
DICTIONARY
5
D
100
AcDbDictionary
0
DICTIONARY
5
1A
330
C
100
AcDbDictionary
0
DICTIONARY
5
17
100
AcDbDictionary
0
ENDSEC
0
EOF
